<svg width="1280" height="720" viewBox="0 0 1280 720" fill="none" xmlns="http://www.w3.org/2000/svg">
<g id="Group">
<rect id="16:9" width="1280" height="720" class="background"/>
<rect id="Rectangle 30" x="21" y="16" width="1238" height="687" rx="60" class="frame"/>
<path id="Vector 7" d="M1123.5 0L1109 16H1185.5L1200 0H1123.5Z" class="secondary"/>
<path id="Vector 8" d="M988.5 0L974 16H1050.5L1065 0H988.5Z" class="secondary"/>
<path id="Left-Vector" d="M86 259.003C84 221.5 35.918 226.569 21 184V558C33.7869 508.336 86 517.5 86 481.984V259.003Z" class="secondary"/>
<rect id="Rectangle 31" x="137" y="90" width="1078" height="7" class="primary"/>
<path id="Vector 9" d="M261.5 703L247 720H323.5L338 703H261.5Z" class="secondary"/>
<path id="Vector 10" d="M125.5 703L111 720H187.5L202 703H125.5Z" class="secondary"/>
<g id="Rectangle 33" filter="url(#filter0_d_77_27)">
<rect x="921" y="454" width="294" height="204" rx="33" class="primary"/>
</g>
<g id="Rectangle 35" filter="url(#filter1_d_77_27)">
<rect x="111" y="130" width="768" height="528" rx="33" fill="white"/>
</g>
<g id="Rectangle 37" filter="url(#filter2_d_77_27)">
<rect x="921" y="135" width="294" height="107" rx="33" fill="white"/>
</g>
<g id="Rectangle 38" filter="url(#filter3_d_77_27)">
<path d="M921 315C921 296.775 935.775 282 954 282H1182C1200.23 282 1215 296.775 1215 315V364C1215 382.225 1200.23 397 1182 397H954C935.775 397 921 382.225 921 364V315Z" fill="white"/>
</g>
</g>
<defs>
<filter id="filter0_d_77_27" x="917" y="454" width="302" height="212" filterUnits="userSpaceOnUse" color-interpolation-filters="sRGB">
<feFlood flood-opacity="0" result="BackgroundImageFix"/>
<feColorMatrix in="SourceAlpha" type="matrix" values="0 0 0 0 0 0 0 0 0 0 0 0 0 0 0 0 0 0 127 0" result="hardAlpha"/>
<feOffset dy="4"/>
<feGaussianBlur stdDeviation="2"/>
<feComposite in2="hardAlpha" operator="out"/>
<feColorMatrix type="matrix" values="0 0 0 0 0 0 0 0 0 0 0 0 0 0 0 0 0 0 0.25 0"/>
<feBlend mode="normal" in2="BackgroundImageFix" result="effect1_dropShadow_77_27"/>
<feBlend mode="normal" in="SourceGraphic" in2="effect1_dropShadow_77_27" result="shape"/>
</filter>
<filter id="filter1_d_77_27" x="107" y="130" width="776" height="536" filterUnits="userSpaceOnUse" color-interpolation-filters="sRGB">
<feFlood flood-opacity="0" result="BackgroundImageFix"/>
<feColorMatrix in="SourceAlpha" type="matrix" values="0 0 0 0 0 0 0 0 0 0 0 0 0 0 0 0 0 0 127 0" result="hardAlpha"/>
<feOffset dy="4"/>
<feGaussianBlur stdDeviation="2"/>
<feComposite in2="hardAlpha" operator="out"/>
<feColorMatrix type="matrix" values="0 0 0 0 0 0 0 0 0 0 0 0 0 0 0 0 0 0 0.25 0"/>
<feBlend mode="normal" in2="BackgroundImageFix" result="effect1_dropShadow_77_27"/>
<feBlend mode="normal" in="SourceGraphic" in2="effect1_dropShadow_77_27" result="shape"/>
</filter>
<filter id="filter2_d_77_27" x="917" y="135" width="302" height="115" filterUnits="userSpaceOnUse" color-interpolation-filters="sRGB">
<feFlood flood-opacity="0" result="BackgroundImageFix"/>
<feColorMatrix in="SourceAlpha" type="matrix" values="0 0 0 0 0 0 0 0 0 0 0 0 0 0 0 0 0 0 127 0" result="hardAlpha"/>
<feOffset dy="4"/>
<feGaussianBlur stdDeviation="2"/>
<feComposite in2="hardAlpha" operator="out"/>
<feColorMatrix type="matrix" values="0 0 0 0 0 0 0 0 0 0 0 0 0 0 0 0 0 0 0.25 0"/>
<feBlend mode="normal" in2="BackgroundImageFix" result="effect1_dropShadow_77_27"/>
<feBlend mode="normal" in="SourceGraphic" in2="effect1_dropShadow_77_27" result="shape"/>
</filter>
<filter id="filter3_d_77_27" x="917" y="282" width="302" height="123" filterUnits="userSpaceOnUse" color-interpolation-filters="sRGB">
<feFlood flood-opacity="0" result="BackgroundImageFix"/>
<feColorMatrix in="SourceAlpha" type="matrix" values="0 0 0 0 0 0 0 0 0 0 0 0 0 0 0 0 0 0 127 0" result="hardAlpha"/>
<feOffset dy="4"/>
<feGaussianBlur stdDeviation="2"/>
<feComposite in2="hardAlpha" operator="out"/>
<feColorMatrix type="matrix" values="0 0 0 0 0 0 0 0 0 0 0 0 0 0 0 0 0 0 0.25 0"/>
<feBlend mode="normal" in2="BackgroundImageFix" result="effect1_dropShadow_77_27"/>
<feBlend mode="normal" in="SourceGraphic" in2="effect1_dropShadow_77_27" result="shape"/>
</filter>
</defs>
</svg>
