<svg width="1280" height="720" viewBox="0 0 1280 720" fill="none" xmlns="http://www.w3.org/2000/svg">
<rect width="1280" height="720" class="background"/>
<rect x="21" y="16" width="1238" height="687" rx="60" class="frame"/>
<path d="M1123.5 0L1109 16H1185.5L1200 0H1123.5Z" class="secondary"/>
<path d="M988.5 0L974 16H1050.5L1065 0H988.5Z" class="secondary"/>
<path d="M86 259.003C84 221.5 35.918 226.569 21 184V558C33.7869 508.336 86 517.5 86 481.984V259.003Z" class="secondary"/>
<rect x="137" y="90" width="1078" height="7" class="primary"/>
<path d="M261.5 703L247 720H323.5L338 703H261.5Z" class="secondary"/>
<path d="M125.5 703L111 720H187.5L202 703H125.5Z" class="secondary"/>
<g filter="url(#filter0_d_76_2)">
<rect x="137" y="135" width="1050" height="212" rx="33" fill="white"/>
</g>
<g filter="url(#filter1_d_76_2)">
<rect x="847" y="371" width="340" height="298" rx="33" fill="white"/>
</g>
<g filter="url(#filter2_d_76_2)">
<rect x="492" y="371" width="340" height="298" rx="33" fill="white"/>
</g>
<g filter="url(#filter3_d_76_2)">
<rect x="137" y="371" width="340" height="298" rx="33" fill="white"/>
</g>
<defs>
<filter id="filter0_d_76_2" x="133" y="135" width="1058" height="220" filterUnits="userSpaceOnUse" color-interpolation-filters="sRGB">
<feFlood flood-opacity="0" result="BackgroundImageFix"/>
<feColorMatrix in="SourceAlpha" type="matrix" values="0 0 0 0 0 0 0 0 0 0 0 0 0 0 0 0 0 0 127 0" result="hardAlpha"/>
<feOffset dy="4"/>
<feGaussianBlur stdDeviation="2"/>
<feComposite in2="hardAlpha" operator="out"/>
<feColorMatrix type="matrix" values="0 0 0 0 0 0 0 0 0 0 0 0 0 0 0 0 0 0 0.25 0"/>
<feBlend mode="normal" in2="BackgroundImageFix" result="effect1_dropShadow_76_2"/>
<feBlend mode="normal" in="SourceGraphic" in2="effect1_dropShadow_76_2" result="shape"/>
</filter>
<filter id="filter1_d_76_2" x="843" y="371" width="348" height="306" filterUnits="userSpaceOnUse" color-interpolation-filters="sRGB">
<feFlood flood-opacity="0" result="BackgroundImageFix"/>
<feColorMatrix in="SourceAlpha" type="matrix" values="0 0 0 0 0 0 0 0 0 0 0 0 0 0 0 0 0 0 127 0" result="hardAlpha"/>
<feOffset dy="4"/>
<feGaussianBlur stdDeviation="2"/>
<feComposite in2="hardAlpha" operator="out"/>
<feColorMatrix type="matrix" values="0 0 0 0 0 0 0 0 0 0 0 0 0 0 0 0 0 0 0.25 0"/>
<feBlend mode="normal" in2="BackgroundImageFix" result="effect1_dropShadow_76_2"/>
<feBlend mode="normal" in="SourceGraphic" in2="effect1_dropShadow_76_2" result="shape"/>
</filter>
<filter id="filter2_d_76_2" x="488" y="371" width="348" height="306" filterUnits="userSpaceOnUse" color-interpolation-filters="sRGB">
<feFlood flood-opacity="0" result="BackgroundImageFix"/>
<feColorMatrix in="SourceAlpha" type="matrix" values="0 0 0 0 0 0 0 0 0 0 0 0 0 0 0 0 0 0 127 0" result="hardAlpha"/>
<feOffset dy="4"/>
<feGaussianBlur stdDeviation="2"/>
<feComposite in2="hardAlpha" operator="out"/>
<feColorMatrix type="matrix" values="0 0 0 0 0 0 0 0 0 0 0 0 0 0 0 0 0 0 0.25 0"/>
<feBlend mode="normal" in2="BackgroundImageFix" result="effect1_dropShadow_76_2"/>
<feBlend mode="normal" in="SourceGraphic" in2="effect1_dropShadow_76_2" result="shape"/>
</filter>
<filter id="filter3_d_76_2" x="133" y="371" width="348" height="306" filterUnits="userSpaceOnUse" color-interpolation-filters="sRGB">
<feFlood flood-opacity="0" result="BackgroundImageFix"/>
<feColorMatrix in="SourceAlpha" type="matrix" values="0 0 0 0 0 0 0 0 0 0 0 0 0 0 0 0 0 0 127 0" result="hardAlpha"/>
<feOffset dy="4"/>
<feGaussianBlur stdDeviation="2"/>
<feComposite in2="hardAlpha" operator="out"/>
<feColorMatrix type="matrix" values="0 0 0 0 0 0 0 0 0 0 0 0 0 0 0 0 0 0 0.25 0"/>
<feBlend mode="normal" in2="BackgroundImageFix" result="effect1_dropShadow_76_2"/>
<feBlend mode="normal" in="SourceGraphic" in2="effect1_dropShadow_76_2" result="shape"/>
</filter>
</defs>
</svg>
