<svg width="1280" height="720" viewBox="0 0 1280 720" fill="none" xmlns="http://www.w3.org/2000/svg">
<g id="Group">
<rect id="16:9" width="1280" height="720" class="background"/>
<rect id="Rectangle 30" x="21" y="16" width="1238" height="687" rx="60" class="frame"/>
<path id="Vector 7" d="M1123.5 0L1109 16H1185.5L1200 0H1123.5Z" class="secondary"/>
<path id="Vector 8" d="M988.5 0L974 16H1050.5L1065 0H988.5Z" class="secondary"/>
<path id="Left-Vector" d="M86 259.003C84 221.5 35.918 226.569 21 184V558C33.7869 508.336 86 517.5 86 481.984V259.003Z" class="secondary"/>
<rect id="Rectangle 31" x="137" y="90" width="1078" height="7" class="primary"/>
<path id="Vector 9" d="M261.5 703L247 720H323.5L338 703H261.5Z" class="secondary"/>
<path id="Vector 10" d="M125.5 703L111 720H187.5L202 703H125.5Z" class="secondary"/>
</g>
</svg>
